<svg width="32" height="31" viewBox="0 0 32 31" fill="none" xmlns="http://www.w3.org/2000/svg">
<path d="M16 0C7.17757 0 0 6.95327 0 15.5C0 24.0467 7.17757 31 16 31C24.8224 31 32 24.0467 32 15.5C32 6.95327 24.8224 0 16 0ZM17.9626 28.1426V23.9019C17.9626 22.5112 17.4019 21.2039 16.3888 20.2188L7.73832 11.8387C7.19252 11.3099 6.3028 11.3099 5.75701 11.8387C5.21122 12.3674 5.21122 13.2293 5.75701 13.7581L14.4075 22.1382C14.8935 22.609 15.1589 23.2355 15.1589 23.8982V28.2549C8.2729 27.8348 2.80374 22.2758 2.80374 15.5C2.80374 8.44895 8.72523 2.71612 16 2.71612C19.3271 2.71612 22.3664 3.91846 24.6916 5.89217L18.3776 12.0053C17.3757 12.9758 15.7421 12.9758 14.7402 12.0053L10.3439 7.74638C9.79813 7.21764 8.90841 7.21764 8.36262 7.74638C7.81682 8.27512 7.81682 9.13703 8.36262 9.66577L12.7589 13.9247C13.8056 14.9387 15.1813 15.4457 16.5607 15.4457C17.9364 15.4457 19.3121 14.9387 20.3589 13.9247L26.5944 7.884C27.0093 8.4236 27.3757 8.99579 27.7009 9.59334L18.9869 18.0387C18.4411 18.5674 18.4411 19.4293 18.9869 19.9581C19.2598 20.2224 19.6187 20.3564 19.9776 20.3564C20.3364 20.3564 20.6953 20.2224 20.9682 19.9581L28.7963 12.3746C29.0579 13.3742 29.1963 14.4244 29.1963 15.5C29.2 21.9064 24.314 27.2228 17.9626 28.1426Z" fill="#00A79D"/>
</svg>
